The Human Centipede (First Sequence)(2009)AC3+DTS Eng-NLSubs

PLOT

Two pretty but ditsy American girls are on a road trip through Europe. 
In Germany, they end up alone at night with a broken car in the woods. 
They search for help and find an isolated villa. The next day, 
they awaken to find themselves trapped in a terrifying makeshift 
basement hospital along with a Japanese man...
 
http://www.youtube.com/watch?v=0piFZXT8Zxo

MM:    http://www.moviemeter.nl/film/60180

IMDB:    http://www.imdb.com/title/tt1467304/

INFO

Subber=NLUPPER
Subs= NLSubs / Eng / Enlish FHI

Enjoy This Nice Release

General
Complete name                    : The.Human.Centipede.First.Sequence.2009.AC3.DTS.Eng.NLSubs.mkv
Format                           : Matroska
File size                        : 6.83 GiB
Duration                         : 1h 28mn
Overall bit rate                 : 11.1 Mbps
Encoded date                     : UTC 2010-10-10 01:12:29
Writing application              : mkvmerge v3.3.0 ('Language') built on Mar 24 2010 14:59:24
Writing library                  : libebml v0.8.0 + libmatroska v0.9.0

Video
ID                               : 1
Format                           : AVC
Format/Info                      : Advanced Video Codec
Format profile                   : High@L4.1
Format settings, CABAC           : Yes
Format settings, ReFrames        : 4 frames
Format settings, GOP             : M=4, N=16
Muxing mode                      : Container profile=Unknown@4.1
Codec ID                         : V_MPEG4/ISO/AVC
Duration                         : 1h 28mn
Bit rate                         : 9 147 Kbps
Width                            : 1 920 pixels
Height                           : 1 080 pixels
Display aspect ratio             : 16:9
Frame rate                       : 25.000 fps
Color space                      : YUV
Chroma subsampling               : 4:2:0
Bit depth                        : 8 bits
Scan type                        : Progressive
Bits/(Pixel*Frame)               : 0.176
Stream size                      : 5.49 GiB (80%)
Writing library                  : x264 core 105 r1724 b02df7b
Encoding settings                : cabac=1 / ref=4 / deblock=1:0:0 / analyse=0x3:0x133 / 
me=umh / subme=7 / psy=1 / psy_rd=1.00:0.00 / mixed_ref=1 / me_range=16 / chroma_me=1 / 
trellis=1 / 8x8dct=1 / cqm=0 / deadzone=21,11 / fast_pskip=0 / chroma_qp_offset=-2 / 
threads=12 / sliced_threads=0 / nr=0 / decimate=1 / interlaced=0 / constrained_intra=0 / 
bframes=3 / b_pyramid=2 / b_adapt=1 / b_bias=0 / direct=1 / weightb=1 / open_gop=0 / 
weightp=2 / keyint=250 / keyint_min=25 / scenecut=40 / intra_refresh=0 / rc_lookahead=40 / 
rc=2pass / mbtree=1 / bitrate=9147 / ratetol=1.0 / qcomp=0.60 / qpmin=10 / qpmax=51 / 
qpstep=4 / cplxblur=20.0 / qblur=0.5 / ip_ratio=1.40 / aq=1:1.00
Language                         : English

Audio #1
ID                               : 2
Format                           : DTS
Format/Info                      : Digital Theater Systems
Codec ID                         : A_DTS
Duration                         : 1h 28mn
Bit rate mode                    : Constant
Bit rate                         : 1 510 Kbps
Channel(s)                       : 2 channels
Channel positions                : Front: L R
Sampling rate                    : 48.0 KHz
Bit depth                        : 24 bits
Stream size                      : 951 MiB (14%)

Audio #2
ID                               : 6
Format                           : AC-3
Format/Info                      : Audio Coding 3
Mode extension                   : CM (complete main)
Codec ID                         : A_AC3
Duration                         : 1h 28mn
Bit rate mode                    : Constant
Bit rate                         : 448 Kbps
Channel(s)                       : 6 channels
Channel positions                : Front: L C R, Side: L R, LFE
Sampling rate                    : 48.0 KHz
Bit depth                        : 16 bits
Stream size                      : 282 MiB (4%)

Text #1
ID                               : 3
Format                           : UTF-8
Codec ID                         : S_TEXT/UTF8
Codec ID/Info                    : UTF-8 Plain Text

Text #2
ID                               : 4
Format                           : UTF-8
Codec ID                         : S_TEXT/UTF8
Codec ID/Info                    : UTF-8 Plain Text
Language                         : Dutch

Text #3
ID                               : 5
Format                           : UTF-8
Codec ID                         : S_TEXT/UTF8
Codec ID/Info                    : UTF-8 Plain Text
Language                         : English


